<svg xmlns:xlink="http://www.w3.org/1999/xlink" xmlns="http://www.w3.org/2000/svg" viewBox="0 0 151.478 12.419" id="svg10918653824" width="151.478"  height="12.419" ><path d="M 3.981 11.312 C 2.493 11.312 1.171 10.755 0.015 9.641 L 0.695 8.777 C 1.213 9.284 1.73 9.656 2.247 9.895 C 2.774 10.134 3.366 10.253 4.022 10.253 C 4.669 10.253 5.191 10.09 5.588 9.761 C 5.986 9.423 6.184 8.985 6.184 8.449 C 6.184 7.942 6.009 7.539 5.658 7.241 C 5.306 6.943 4.641 6.684 3.662 6.466 C 2.506 6.198 1.674 5.834 1.166 5.377 C 0.658 4.92 0.405 4.268 0.405 3.424 C 0.405 2.598 0.704 1.918 1.304 1.38 C 1.906 0.844 2.668 0.575 3.594 0.575 C 4.878 0.575 6.014 1.003 7.003 1.859 L 6.366 2.767 C 5.507 2.012 4.573 1.634 3.565 1.634 C 2.946 1.634 2.447 1.799 2.068 2.126 C 1.689 2.445 1.499 2.852 1.499 3.349 C 1.499 3.865 1.68 4.273 2.04 4.572 C 2.41 4.87 3.108 5.139 4.134 5.377 C 5.234 5.636 6.033 5.999 6.532 6.466 C 7.04 6.923 7.294 7.555 7.294 8.36 C 7.294 9.244 6.984 9.959 6.366 10.507 C 5.746 11.044 4.951 11.312 3.981 11.312 Z M 18.948 11.327 C 17.718 11.327 16.738 10.934 16.008 10.149 C 15.278 9.353 14.913 8.234 14.913 6.794 L 14.913 0.724 L 16.008 0.724 L 16.008 6.719 C 16.008 7.843 16.267 8.713 16.784 9.329 C 17.311 9.935 18.041 10.239 18.975 10.239 C 19.889 10.239 20.606 9.945 21.124 9.358 C 21.641 8.772 21.9 7.917 21.9 6.794 L 21.9 0.724 L 22.995 0.724 L 22.995 6.705 C 22.995 8.195 22.63 9.339 21.9 10.134 C 21.169 10.929 20.185 11.327 18.948 11.327 Z M 31.13 11.163 L 31.13 0.724 L 34.762 0.724 C 35.87 0.724 36.752 1.022 37.41 1.618 C 38.065 2.214 38.394 3.03 38.394 4.064 C 38.394 5.148 38.029 5.989 37.298 6.583 C 36.578 7.181 35.672 7.479 34.581 7.479 L 32.224 7.479 L 32.224 11.162 L 31.13 11.162 Z M 32.224 6.407 L 34.622 6.407 C 35.427 6.407 36.069 6.198 36.549 5.78 C 37.04 5.352 37.285 4.785 37.285 4.08 C 37.285 3.355 37.049 2.797 36.578 2.41 C 36.115 2.012 35.482 1.813 34.678 1.813 L 32.224 1.813 L 32.224 6.406 Z M 45.934 11.163 L 45.934 0.724 L 52.949 0.724 L 52.949 1.797 L 47.029 1.797 L 47.029 5.361 L 52.325 5.361 L 52.325 6.434 L 47.029 6.434 L 47.029 10.088 L 53.018 10.088 L 53.018 11.162 L 45.934 11.162 Z M 60.767 11.163 L 60.767 0.724 L 64.938 0.724 C 66.131 0.724 67.05 1.072 67.697 1.767 C 68.196 2.304 68.446 3 68.446 3.855 C 68.446 4.69 68.205 5.365 67.726 5.883 C 67.245 6.4 66.607 6.738 65.811 6.897 L 68.793 11.162 L 67.448 11.162 L 64.634 7.106 L 61.861 7.106 L 61.861 11.162 L 60.766 11.162 Z M 61.861 6.049 L 64.842 6.049 C 65.581 6.049 66.181 5.854 66.644 5.466 C 67.106 5.079 67.337 4.547 67.337 3.871 C 67.337 3.225 67.115 2.723 66.672 2.365 C 66.237 1.998 65.632 1.813 64.855 1.813 L 61.861 1.813 Z M 76.329 11.163 L 76.329 0.724 L 77.425 0.724 L 77.425 5.362 L 83.025 5.362 L 83.025 0.724 L 84.12 0.724 L 84.12 11.164 L 83.025 11.164 L 83.025 6.467 L 77.425 6.467 L 77.425 11.164 L 76.329 11.164 Z M 96.288 11.327 C 95.059 11.327 94.079 10.934 93.349 10.149 C 92.619 9.353 92.254 8.234 92.254 6.794 L 92.254 0.724 L 93.349 0.724 L 93.349 6.719 C 93.349 7.843 93.608 8.713 94.125 9.329 C 94.653 9.935 95.382 10.239 96.316 10.239 C 97.231 10.239 97.947 9.945 98.464 9.358 C 98.982 8.772 99.24 7.917 99.24 6.794 L 99.24 0.724 L 100.336 0.724 L 100.336 6.705 C 100.336 8.195 99.971 9.339 99.24 10.134 C 98.51 10.929 97.526 11.327 96.288 11.327 Z M 108.471 11.163 L 108.471 0.724 L 109.579 0.724 L 113.115 6.42 L 116.65 0.724 L 117.759 0.724 L 117.759 11.164 L 116.663 11.164 L 116.663 2.707 L 113.129 8.299 L 113.073 8.299 L 109.538 2.722 L 109.538 11.162 L 108.471 11.162 Z M 125.219 11.163 L 129.641 0.651 L 130.667 0.651 L 135.089 11.162 L 133.911 11.162 L 132.774 8.404 L 127.492 8.404 L 126.341 11.163 Z M 127.922 7.346 L 132.344 7.346 L 130.14 2.022 Z M 142.547 11.163 L 142.547 0.724 L 143.573 0.724 L 149.687 9.089 L 149.687 0.724 L 150.755 0.724 L 150.755 11.164 L 149.881 11.164 L 143.615 2.604 L 143.615 11.164 L 142.547 11.164 Z" fill="#FFFFFF"></path></svg>